<svg xmlns="http://www.w3.org/2000/svg" width="42.099" height="31.083" viewBox="0 0 42.099 31.083">
  <g id="inverted-commas" transform="translate(0 -25.905)">
    <path id="Path_159" data-name="Path 159" d="M0,40.151H10.211c-.175,7.442-2.285,8.287-4.936,8.528l-1.022.127v8.183l1.178-.063c3.462-.195,7.289-.819,9.842-3.971,2.238-2.763,3.225-7.278,3.225-14.208V25.905H0Z" transform="translate(0 0)" fill="#31b5c4"/>
    <path id="Path_160" data-name="Path 160" d="M111,25.905V40.151h10.075c-.175,7.442-2.217,8.287-4.868,8.528l-.954.127v8.183l1.11-.063c3.462-.195,7.323-.819,9.876-3.971,2.238-2.763,3.259-7.278,3.259-14.208V25.905Z" transform="translate(-87.399 0)" fill="#31b5c4"/>
  </g>
</svg>
